<?xml version="1.0" encoding="utf-8"?>
<!-- Generator: Adobe Illustrator 27.4.1, SVG Export Plug-In . SVG Version: 6.00 Build 0)  -->
<svg version="1.1" id="레이어_1" xmlns="http://www.w3.org/2000/svg" xmlns:xlink="http://www.w3.org/1999/xlink" x="0px"
	 y="0px" viewBox="0 0 64 64" style="enable-background:new 0 0 64 64;" xml:space="preserve">
<style type="text/css">
	.st0{clip-path:url(#SVGID_00000128475058859460161600000009152148755514556083_);fill:#FFFFFF;}
	.st1{clip-path:url(#SVGID_00000128475058859460161600000009152148755514556083_);fill:#BFBFBF;}
	.st2{clip-path:url(#SVGID_00000128475058859460161600000009152148755514556083_);fill:#FAFAFA;}
	.st3{fill-rule:evenodd;clip-rule:evenodd;fill:#D9D9D9;}
	.st4{fill:#434343;}
	.st5{fill-rule:evenodd;clip-rule:evenodd;fill:#1B1B1B;}
	.st6{fill-rule:evenodd;clip-rule:evenodd;fill:#BFBFBF;}
	.st7{fill:#BFBFBF;}
</style>
<g>
	<g>
		<defs>
			<polyline id="SVGID_1_" points="0.7,0.7 65.5,0.7 65.5,63.3 0.7,63.3 0.7,0.7 			"/>
		</defs>
		<clipPath id="SVGID_00000116223451757496108700000009471644741246969774_">
			<use xlink:href="#SVGID_1_"  style="overflow:visible;"/>
		</clipPath>
		<path style="clip-path:url(#SVGID_00000116223451757496108700000009471644741246969774_);fill:#FFFFFF;" d="M0.7,5.2L0.7,5.2v56.6
			c0,0.8,0.7,1.5,1.5,1.5h59.5c0.8,0,1.5-0.7,1.5-1.5l0,0c0,0.8-0.7,1.5-1.5,1.5H2.2c-0.8,0-1.5-0.7-1.5-1.5V5.2"/>
		<path style="clip-path:url(#SVGID_00000116223451757496108700000009471644741246969774_);fill:#FFFFFF;" d="M63.3,5.2H0.7v56.6
			c0,0.8,0.7,1.5,1.5,1.5h59.5c0.8,0,1.5-0.7,1.5-1.5V5.2"/>
		<path style="clip-path:url(#SVGID_00000116223451757496108700000009471644741246969774_);fill:#BFBFBF;" d="M3,3.7
			C2.5,3.7,2.2,3.4,2.2,3c0-0.4,0.3-0.7,0.7-0.7c0.4,0,0.7,0.3,0.7,0.7C3.7,3.4,3.4,3.7,3,3.7 M5.9,3.7C5.5,3.7,5.2,3.4,5.2,3
			c0-0.4,0.3-0.7,0.7-0.7c0.4,0,0.7,0.3,0.7,0.7C6.7,3.4,6.3,3.7,5.9,3.7 M8.9,3.7C8.5,3.7,8.2,3.4,8.2,3c0-0.4,0.3-0.7,0.7-0.7
			S9.7,2.6,9.7,3C9.7,3.4,9.3,3.7,8.9,3.7 M61.8,0.7H2.2c-0.8,0-1.5,0.7-1.5,1.5v3h62.5v-3C63.3,1.4,62.6,0.7,61.8,0.7"/>
		<path style="clip-path:url(#SVGID_00000116223451757496108700000009471644741246969774_);fill:#FAFAFA;" d="M3,2.2
			C2.5,2.2,2.2,2.6,2.2,3c0,0.4,0.3,0.7,0.7,0.7c0.4,0,0.7-0.3,0.7-0.7C3.7,2.6,3.4,2.2,3,2.2"/>
		<path style="clip-path:url(#SVGID_00000116223451757496108700000009471644741246969774_);fill:#FAFAFA;" d="M5.9,2.2
			C5.5,2.2,5.2,2.6,5.2,3c0,0.4,0.3,0.7,0.7,0.7c0.4,0,0.7-0.3,0.7-0.7C6.7,2.6,6.3,2.2,5.9,2.2"/>
		<path style="clip-path:url(#SVGID_00000116223451757496108700000009471644741246969774_);fill:#FAFAFA;" d="M8.9,2.2
			C8.5,2.2,8.2,2.6,8.2,3c0,0.4,0.3,0.7,0.7,0.7S9.7,3.4,9.7,3C9.7,2.6,9.3,2.2,8.9,2.2"/>
	</g>
	<path class="st3" d="M19.3,8.2c0-0.4,0.3-0.7,0.7-0.7h40.2c0.4,0,0.7,0.3,0.7,0.7v3c0,0.4-0.3,0.7-0.7,0.7H20.1
		c-0.4,0-0.7-0.3-0.7-0.7V8.2z"/>
	<path class="st4" d="M0.7,5.2h16.4v58H2.2c-0.8,0-1.5-0.7-1.5-1.5V5.2z"/>
	<circle class="st5" cx="4.8" cy="9.3" r="2.6"/>
	<path class="st5" d="M8.9,8.6c0-0.4,0.3-0.7,0.7-0.7h6c0.4,0,0.7,0.3,0.7,0.7V10c0,0.4-0.3,0.7-0.7,0.7h-6c-0.4,0-0.7-0.3-0.7-0.7
		V8.6z"/>
	<rect x="2.2" y="16.4" class="st4" width="13.4" height="45.4"/>
	<path class="st5" d="M15.6,17.1c0-0.4-0.3-0.7-0.7-0.7H3c-0.4,0-0.7,0.3-0.7,0.7c0,0.4,0.3,0.7,0.7,0.7h11.9
		C15.3,17.9,15.6,17.5,15.6,17.1z"/>
	<path class="st5" d="M15.6,20.8c0-0.4-0.3-0.7-0.7-0.7H3c-0.4,0-0.7,0.3-0.7,0.7c0,0.4,0.3,0.7,0.7,0.7h11.9
		C15.3,21.6,15.6,21.2,15.6,20.8z"/>
	<path class="st5" d="M15.6,24.6c0-0.4-0.3-0.7-0.7-0.7H3c-0.4,0-0.7,0.3-0.7,0.7c0,0.4,0.3,0.7,0.7,0.7h11.9
		C15.3,25.3,15.6,25,15.6,24.6z"/>
	<path class="st5" d="M15.6,28.3c0-0.4-0.3-0.7-0.7-0.7H3c-0.4,0-0.7,0.3-0.7,0.7C2.2,28.7,2.6,29,3,29h11.9
		C15.3,29,15.6,28.7,15.6,28.3z"/>
	<path class="st5" d="M15.6,32c0-0.4-0.3-0.7-0.7-0.7H3c-0.4,0-0.7,0.3-0.7,0.7c0,0.4,0.3,0.7,0.7,0.7h11.9
		C15.3,32.7,15.6,32.4,15.6,32z"/>
	<path class="st5" d="M15.6,35.7c0-0.4-0.3-0.7-0.7-0.7H3c-0.4,0-0.7,0.3-0.7,0.7c0,0.4,0.3,0.7,0.7,0.7h11.9
		C15.3,36.5,15.6,36.1,15.6,35.7z"/>
	<path class="st5" d="M15.6,39.4c0-0.4-0.3-0.7-0.7-0.7H3c-0.4,0-0.7,0.3-0.7,0.7s0.3,0.7,0.7,0.7h11.9
		C15.3,40.2,15.6,39.9,15.6,39.4z"/>
	<path class="st5" d="M15.6,43.2c0-0.4-0.3-0.7-0.7-0.7H3c-0.4,0-0.7,0.3-0.7,0.7c0,0.4,0.3,0.7,0.7,0.7h11.9
		C15.3,43.9,15.6,43.6,15.6,43.2z"/>
	<path class="st6" d="M19.3,58.8c0-0.4,0.3-0.7,0.7-0.7h40.2c0.4,0,0.7,0.3,0.7,0.7v1.5c0,0.4-0.3,0.7-0.7,0.7H20.1
		c-0.4,0-0.7-0.3-0.7-0.7V58.8z"/>
	<path class="st7" d="M2.2,0.4v0.4h59.5c0.8,0,1.5,0.7,1.5,1.5v59.5c0,0.8-0.7,1.5-1.5,1.5H2.2c-0.8,0-1.5-0.7-1.5-1.5l0-59.5
		c0-0.8,0.7-1.5,1.5-1.5L2.2,0.4V0C1,0,0,1,0,2.2h0v59.5C0,63,1,64,2.2,64h59.5c1.2,0,2.2-1,2.2-2.2V2.2C64,1,63,0,61.8,0H2.2V0.4z"
		/>
</g>
</svg>
