<?xml version="1.0" encoding="UTF-8"?>
<svg id="_레이어_1" data-name="레이어 1" xmlns="http://www.w3.org/2000/svg" version="1.1" viewBox="0 0 153 61.77">
  <defs>
    <style>
      .cls-1 {
        fill: #070000;
      }

      .cls-1, .cls-2, .cls-3 {
        stroke-width: 0px;
      }

      .cls-2 {
        fill: #2b56a5;
      }

      .cls-3 {
        fill: #fff;
      }
    </style>
  </defs>
  <polygon class="cls-2" points="125.64 51.15 89.02 61.77 89.02 1.79 125.64 13.6 125.64 51.15"/>
  <g>
    <path class="cls-1" d="M2.02,44.31l-1.8-4.22c.93.2,3.54.73,5.65.73,1.78,0,2.81-.4,3.09-1.2.15-.33.15-.65-.02-.98-.38-.78-1.53-1.13-3.04-1.56-1.58-.4-3.61-1.03-4.82-2.23C-.07,33.63-.07,32.02.05,30.92c.23-2.08,1.11-3.49,2.66-4.26,1.31-.7,2.86-.8,4.24-.88h.7c1.83,0,2.27.25,3.45.43l1.82,4.12c-.8-.2-2.93-.58-4.82-.58s-2.96.43-3.29,1.26c-.13.35-.13.68.02,1,.4.83,1.66,1.2,3.26,1.68,1.71.48,3.54,1.03,4.57,2.13,1.2,1.2,1.2,2.89,1.08,3.92-.23,2.06-1.13,3.49-2.66,4.27-1.31.7-2.86.78-4.27.85h-.6c-2.19,0-2.98-.33-4.2-.53h0Z"/>
    <path class="cls-1" d="M19.92,33.5h4.89l-1.72,3.44h-3.18v4.04h6.15v3.72h-10.99v-18.83h10.99v3.64h-6.15v3.99Z"/>
    <path class="cls-1" d="M40.54,40.65v3.74c-.53.07-1.18.15-1.96.27-.8.13-1.76.2-2.84.2-3.99,0-6.58-1.46-7.76-4.34-.38-.98-.65-2.43-.65-4.64v-1.23c0-2.71.43-4.42,1.06-5.45,1.33-2.33,3.79-3.52,7.38-3.52,1.51,0,3.06.2,4.77.53v3.72c-1.88-.27-3.29-.4-4.32-.4-1.71,0-2.66.15-3.34.83-.58.47-.86,1.6-.86,3.72v2.86c0,1.99.38,2.81.75,3.19.53.63,1.56.95,3.36.95h.45c.88,0,2.21-.15,3.94-.43h0Z"/>
    <path class="cls-1" d="M58.53,35.88c0,2.18-.23,3.74-.65,4.67-.63,1.48-1.6,2.59-2.91,3.26-1.28.68-2.89,1.06-4.79,1.06s-3.52-.38-4.79-1.06c-1.35-.73-2.33-1.81-2.93-3.26-.43-.88-.63-2.43-.63-4.67v-9.99h4.67v10.94c0,1.91.38,2.99.78,3.31.43.58,1.4.9,2.91.95,1.53-.05,2.48-.38,2.89-.95.38-.33.73-1.33.73-3.24v-11.02h4.74v9.99h0Z"/>
    <path class="cls-1" d="M65.09,39.15c-.23,0-.43,0-.6.02v5.52h-4.69v-18.8c.68-.03,1.46-.03,2.28-.05,1.43-.02,3.44-.07,5.85-.07,2.86,0,4.29.8,5.3,2.48.4.88.75,2.01.75,3.92v.88c0,1.6-.38,2.56-.78,3.24-.48.83-1.08,1.35-2.19,1.83,1.43.53,2.26,1.93,2.51,2.51.18.33.55,1.33.93,2.26.23.55.45,1.15.73,1.81h-4.97c-.13-.38-.27-.75-.45-1.13-.27-.68-.6-1.48-.98-2.26-.4-.88-.93-1.73-2.23-2.01-.58-.13-1.08-.15-1.46-.15h0ZM65.64,35.78c.63.02,1.31.05,1.6.05.23.02.45,0,.68-.05.38-.07.85-.23,1.26-.63.48-.47.58-1.06.58-1.86v-1.38c0-1.23-.13-1.68-.43-2.06-.6-.6-1.73-.83-4.85-.55v6.43c.4.03.78.03,1.15.05h0Z"/>
    <path class="cls-1" d="M81.29,33.5h4.89l-1.72,3.44h-3.18v4.04h6.15v3.72h-10.99v-18.83h10.99v3.64h-6.15v3.99Z"/>
    <path class="cls-3" d="M104.59,35.73v8.44c-.53.13-1.08.25-1.68.35-1.08.18-2.46.33-4.14.33-3.94,0-6.55-1.43-7.78-4.32-.38-.93-.6-2.46-.6-4.67v-1.23c0-2.61.38-4.44,1.06-5.42,1.4-2.31,3.77-3.46,7.36-3.46,1.51,0,3.06.18,4.77.5l.4,3.72c-1.83-.3-3.69-.45-4.69-.45-1.68,0-2.79.27-3.31.83-.47.3-.9,1.68-.9,3.72v2.94c0,1.91.35,2.84.83,3.14.43.63,1.51.93,3.26.93h.88v-4.14h-3.5l2.5-3.41h5.56v2.23h0Z"/>
    <path class="cls-3" d="M111.18,44.69h-5.32l6.85-18.83h5.27l6.8,18.83h-13.6Z"/>
    <path class="cls-1" d="M136.24,29.53v15.16h-4.82v-15.16h-4.44v-3.64h13.76v3.64h-4.5Z"/>
    <path class="cls-1" d="M146.85,33.5h4.9l-1.72,3.44h-3.18v4.04h6.15v3.72h-10.99v-18.83h10.99v3.64h-6.15v3.99h0Z"/>
  </g>
  <path class="cls-2" d="M114,40.27h2.64l-.13-3.57c.49-.37.81-.95.81-1.61s-.34-1.28-.86-1.65c-.33-.23-.72-.36-1.14-.36-1.11,0-2,.9-2,2,0,.4.12.77.32,1.08.13.2.3.39.49.53l-.13,3.57h0Z"/>
</svg>