<svg width="579" height="227" viewBox="0 0 579 227" fill="none" xmlns="http://www.w3.org/2000/svg">
<path d="M65.0852 142H51.9034L71.9886 83.8182H87.8409L107.898 142H94.7159L80.142 97.1136H79.6875L65.0852 142ZM64.2614 119.131H95.3977V128.733H64.2614V119.131ZM145.238 83.8182H157.539V121.602C157.539 125.845 156.526 129.557 154.499 132.739C152.492 135.92 149.679 138.402 146.062 140.182C142.445 141.943 138.23 142.824 133.42 142.824C128.59 142.824 124.367 141.943 120.749 140.182C117.132 138.402 114.32 135.92 112.312 132.739C110.304 129.557 109.301 125.845 109.301 121.602V83.8182H121.602V120.551C121.602 122.767 122.085 124.737 123.051 126.46C124.035 128.184 125.418 129.538 127.198 130.523C128.979 131.508 131.052 132 133.42 132C135.806 132 137.88 131.508 139.641 130.523C141.422 129.538 142.795 128.184 143.761 126.46C144.746 124.737 145.238 122.767 145.238 120.551V83.8182ZM159.844 93.9602V83.8182H207.628V93.9602H189.816V142H177.657V93.9602H159.844ZM209.897 142V83.8182H222.199V107.824H247.17V83.8182H259.443V142H247.17V117.966H222.199V142H209.897ZM302.564 102.625C302.167 101.242 301.608 100.021 300.888 98.9602C300.169 97.8807 299.288 96.9716 298.246 96.233C297.224 95.4754 296.049 94.8977 294.724 94.5C293.417 94.1023 291.968 93.9034 290.377 93.9034C287.404 93.9034 284.79 94.642 282.536 96.1193C280.301 97.5966 278.559 99.7462 277.309 102.568C276.059 105.371 275.434 108.799 275.434 112.852C275.434 116.905 276.049 120.352 277.28 123.193C278.511 126.034 280.254 128.203 282.508 129.699C284.761 131.176 287.422 131.915 290.491 131.915C293.275 131.915 295.652 131.422 297.621 130.438C299.61 129.434 301.125 128.023 302.167 126.205C303.227 124.386 303.758 122.237 303.758 119.756L306.258 120.125H291.258V110.864H315.604V118.193C315.604 123.307 314.525 127.701 312.366 131.375C310.207 135.03 307.233 137.852 303.445 139.841C299.657 141.811 295.32 142.795 290.434 142.795C284.979 142.795 280.188 141.593 276.059 139.188C271.93 136.763 268.71 133.326 266.4 128.875C264.108 124.405 262.962 119.102 262.962 112.966C262.962 108.25 263.644 104.045 265.008 100.352C266.39 96.6402 268.322 93.4962 270.803 90.9205C273.284 88.3447 276.172 86.3845 279.468 85.0398C282.763 83.6951 286.333 83.0227 290.178 83.0227C293.474 83.0227 296.542 83.5057 299.383 84.4716C302.224 85.4186 304.743 86.7633 306.939 88.5057C309.155 90.2481 310.964 92.322 312.366 94.7273C313.767 97.1136 314.667 99.7462 315.064 102.625H302.564ZM355.182 83.8182H367.483V121.602C367.483 125.845 366.47 129.557 364.443 132.739C362.436 135.92 359.623 138.402 356.006 140.182C352.388 141.943 348.174 142.824 343.364 142.824C338.534 142.824 334.311 141.943 330.693 140.182C327.076 138.402 324.263 135.92 322.256 132.739C320.248 129.557 319.244 125.845 319.244 121.602V83.8182H331.545V120.551C331.545 122.767 332.028 124.737 332.994 126.46C333.979 128.184 335.362 129.538 337.142 130.523C338.922 131.508 340.996 132 343.364 132C345.75 132 347.824 131.508 349.585 130.523C351.366 129.538 352.739 128.184 353.705 126.46C354.689 124.737 355.182 122.767 355.182 120.551V83.8182ZM382.032 142H368.85L388.936 83.8182H404.788L424.845 142H411.663L397.089 97.1136H396.634L382.032 142ZM381.208 119.131H412.345V128.733H381.208V119.131ZM426.247 142V83.8182H449.202C453.596 83.8182 457.346 84.6042 460.452 86.1761C463.577 87.7292 465.954 89.9356 467.583 92.7955C469.23 95.6364 470.054 98.9792 470.054 102.824C470.054 106.687 469.221 110.011 467.554 112.795C465.888 115.561 463.473 117.682 460.31 119.159C457.166 120.636 453.359 121.375 448.889 121.375H433.52V111.489H446.901C449.249 111.489 451.2 111.167 452.753 110.523C454.306 109.879 455.461 108.913 456.219 107.625C456.996 106.337 457.384 104.737 457.384 102.824C457.384 100.892 456.996 99.2633 456.219 97.9375C455.461 96.6117 454.297 95.608 452.725 94.9261C451.172 94.2254 449.211 93.875 446.844 93.875H438.549V142H426.247ZM457.668 115.523L472.128 142H458.549L444.401 115.523H457.668ZM493.772 142H473.147V83.8182H493.943C499.795 83.8182 504.833 84.983 509.057 87.3125C513.28 89.6231 516.528 92.947 518.801 97.2841C521.093 101.621 522.238 106.811 522.238 112.852C522.238 118.913 521.093 124.121 518.801 128.477C516.528 132.833 513.261 136.176 509 138.506C504.757 140.835 499.682 142 493.772 142ZM485.449 131.46H493.261C496.897 131.46 499.956 130.816 502.437 129.528C504.937 128.222 506.812 126.205 508.062 123.477C509.331 120.731 509.966 117.189 509.966 112.852C509.966 108.553 509.331 105.04 508.062 102.312C506.812 99.5852 504.947 97.5777 502.466 96.2898C499.985 95.0019 496.926 94.358 493.29 94.358H485.449V131.46Z" fill="white"/>
</svg>
