<?xml version="1.0" encoding="UTF-8"?>
<svg id="_레이어_1" data-name="레이어 1" xmlns="http://www.w3.org/2000/svg" version="1.1" viewBox="0 0 165.9 38.3">
  <defs>
    <style>
      .cls-1 {
        fill: #070000;
      }

      .cls-1, .cls-2, .cls-3 {
        stroke-width: 0px;
      }

      .cls-2 {
        fill: #2b56a5;
      }

      .cls-3 {
        fill: #fff;
      }
    </style>
  </defs>
  <polygon class="cls-2" points="113.14 31.05 90.64 37.58 90.64 .72 113.14 7.98 113.14 31.05"/>
  <g>
    <path class="cls-1" d="M37.19,26.85l-1.1-2.59c.57.12,2.17.45,3.47.45,1.09,0,1.73-.25,1.9-.74.09-.2.09-.4-.01-.6-.23-.48-.94-.69-1.87-.96-.97-.25-2.22-.63-2.96-1.37-.71-.75-.71-1.74-.63-2.42.14-1.28.68-2.14,1.63-2.62.8-.43,1.76-.49,2.61-.54h.43c1.13,0,1.4.15,2.12.26l1.12,2.53c-.49-.12-1.8-.35-2.96-.35s-1.82.26-2.02.77c-.08.22-.08.42.01.62.25.51,1.02.74,2.01,1.03,1.05.29,2.17.63,2.81,1.31.74.74.74,1.77.66,2.41-.14,1.27-.69,2.14-1.63,2.62-.8.43-1.76.48-2.62.52h-.37c-1.34,0-1.83-.2-2.58-.32h0Z"/>
    <path class="cls-1" d="M48.19,20.2h3.01l-1.05,2.11h-1.95v2.48h3.78v2.28h-6.75v-11.57h6.75v2.24h-3.78v2.45Z"/>
    <path class="cls-1" d="M60.86,24.6v2.3c-.32.05-.73.09-1.2.17-.49.08-1.08.12-1.74.12-2.45,0-4.04-.89-4.77-2.67-.23-.6-.4-1.49-.4-2.85v-.76c0-1.67.26-2.71.65-3.35.82-1.43,2.33-2.16,4.53-2.16.93,0,1.88.12,2.93.32v2.28c-1.16-.17-2.02-.25-2.65-.25-1.05,0-1.63.09-2.05.51-.35.29-.53.99-.53,2.28v1.76c0,1.22.23,1.73.46,1.96.32.39.96.59,2.07.59h.28c.54,0,1.36-.09,2.42-.26h0Z"/>
    <path class="cls-1" d="M71.91,21.67c0,1.34-.14,2.3-.4,2.87-.39.91-.99,1.59-1.79,2.01-.79.42-1.77.65-2.95.65s-2.16-.23-2.95-.65c-.83-.45-1.43-1.11-1.8-2.01-.26-.54-.39-1.49-.39-2.87v-6.14h2.87v6.72c0,1.17.23,1.83.48,2.03.26.35.86.55,1.79.59.94-.03,1.53-.23,1.77-.59.23-.2.45-.82.45-1.99v-6.77h2.91v6.14h0Z"/>
    <path class="cls-1" d="M75.94,23.68c-.14,0-.26,0-.37.01v3.39h-2.88v-11.55c.42-.02.89-.02,1.4-.03.88-.01,2.11-.05,3.59-.05,1.76,0,2.64.49,3.25,1.53.25.54.46,1.23.46,2.41v.54c0,.99-.23,1.57-.48,1.99-.29.51-.66.83-1.34,1.13.88.32,1.39,1.19,1.54,1.54.11.2.34.82.57,1.39.14.34.28.71.45,1.11h-3.05c-.08-.23-.17-.46-.28-.69-.17-.42-.37-.91-.6-1.39-.25-.54-.57-1.07-1.37-1.23-.35-.08-.66-.09-.89-.09h0ZM76.28,21.61c.39.01.8.03.99.03.14.01.28,0,.42-.03.23-.05.52-.14.77-.39.29-.29.35-.65.35-1.14v-.85c0-.75-.08-1.03-.26-1.26-.37-.37-1.06-.51-2.98-.34v3.95c.25.02.48.02.71.03h0Z"/>
    <path class="cls-1" d="M85.89,20.2h3.01l-1.05,2.11h-1.95v2.48h3.78v2.28h-6.75v-11.57h6.75v2.24h-3.78v2.45Z"/>
    <path class="cls-3" d="M100.21,21.58v5.18c-.32.08-.66.15-1.03.22-.66.11-1.51.2-2.54.2-2.42,0-4.03-.88-4.78-2.65-.23-.57-.37-1.51-.37-2.87v-.76c0-1.6.23-2.73.65-3.33.86-1.42,2.31-2.13,4.52-2.13.93,0,1.88.11,2.93.31l.25,2.28c-1.13-.19-2.27-.28-2.88-.28-1.03,0-1.71.17-2.03.51-.29.19-.55,1.03-.55,2.28v1.81c0,1.17.21,1.74.51,1.93.26.39.93.57,2.01.57h.54v-2.55h-2.15l1.54-2.1h3.42v1.37h0Z"/>
    <path class="cls-3" d="M104.25,27.08h-3.27l4.21-11.57h3.24l4.18,11.57h-8.36Z"/>
    <path class="cls-1" d="M119.65,17.77v9.31h-2.96v-9.31h-2.73v-2.24h8.45v2.24h-2.76Z"/>
    <path class="cls-1" d="M126.17,20.2h3.01l-1.05,2.11h-1.95v2.48h3.78v2.28h-6.75v-11.57h6.75v2.24h-3.78v2.45h0Z"/>
  </g>
  <path class="cls-2" d="M105.99,24.36h1.62l-.08-2.19c.3-.23.5-.58.5-.99s-.21-.79-.53-1.01c-.2-.14-.44-.22-.7-.22-.68,0-1.23.55-1.23,1.23,0,.25.07.47.19.66.08.13.18.24.3.33l-.08,2.19h0Z"/>
</svg>