<?xml version="1.0" encoding="UTF-8"?>
<svg id="_레이어_1" data-name=" 레이어 1" xmlns="http://www.w3.org/2000/svg" version="1.1" viewBox="0 0 235.2 60">
  <defs>
    <style>
      .cls-1 {
        fill: #070000;
      }

      .cls-1, .cls-2, .cls-3 {
        stroke-width: 0px;
      }

      .cls-2 {
        fill: #2b56a5;
      }

      .cls-3 {
        fill: #fff;
      }
    </style>
  </defs>
  <polygon class="cls-2" points="157.08 45.56 127.67 54.09 127.67 5.91 157.08 15.39 157.08 45.56"/>
  <g>
    <path class="cls-1" d="M57.75,40.07l-1.45-3.39c.75.16,2.84.58,4.54.58,1.43,0,2.26-.32,2.48-.97.12-.27.12-.52-.02-.79-.3-.62-1.23-.91-2.44-1.25-1.28-.32-2.9-.83-3.87-1.8-.92-.98-.92-2.28-.83-3.17.18-1.68.89-2.81,2.14-3.42,1.04-.56,2.3-.64,3.41-.7h.56c1.47,0,1.82.21,2.77.34l1.46,3.3c-.64-.16-2.36-.46-3.87-.46s-2.38.34-2.65,1.01c-.1.28-.1.55.02.8.32.67,1.34.97,2.62,1.35,1.37.39,2.84.83,3.67,1.71.97.97.97,2.32.86,3.15-.18,1.65-.91,2.81-2.14,3.42-1.04.56-2.3.62-3.42.68h-.49c-1.76,0-2.39-.27-3.38-.43h0l.02.04Z"/>
    <path class="cls-1" d="M72.14,31.38h3.93l-1.38,2.76h-2.55v3.24h4.94v2.99h-8.83v-15.13h8.83v2.93h-4.94v3.21h0Z"/>
    <path class="cls-1" d="M88.71,37.13v3c-.43.06-.95.12-1.58.22-.64.1-1.41.16-2.28.16-3.21,0-5.28-1.17-6.23-3.49-.3-.79-.52-1.96-.52-3.73v-1c0-2.17.34-3.55.85-4.37,1.07-1.87,3.05-2.83,5.93-2.83,1.21,0,2.45.16,3.83.43v2.99c-1.52-.22-2.65-.32-3.47-.32-1.37,0-2.14.12-2.68.67-.46.38-.69,1.29-.69,2.99v2.3c0,1.59.3,2.26.61,2.56.43.51,1.25.77,2.7.77h.36c.7,0,1.77-.12,3.17-.34h.02Z"/>
    <path class="cls-1" d="M103.16,33.29c0,1.75-.18,3-.52,3.75-.51,1.19-1.29,2.08-2.34,2.62-1.03.55-2.32.85-3.85.85s-2.83-.3-3.85-.85c-1.09-.58-1.87-1.46-2.36-2.62-.34-.7-.51-1.96-.51-3.75v-8.03h3.75v8.79c0,1.53.3,2.4.62,2.66.34.46,1.13.73,2.34.77,1.23-.04,1.99-.3,2.32-.77.3-.27.58-1.07.58-2.6v-8.85h3.81v8.03h0Z"/>
    <path class="cls-1" d="M108.43,35.91c-.18,0-.34,0-.49.02v4.43h-3.76v-15.11c.55-.02,1.17-.02,1.83-.04,1.15-.02,2.76-.06,4.7-.06,2.3,0,3.45.64,4.25,1.99.32.7.61,1.62.61,3.15v.7c0,1.29-.3,2.06-.62,2.6-.39.67-.86,1.09-1.76,1.47,1.15.43,1.82,1.55,2.02,2.02.15.27.45,1.07.75,1.82.18.45.36.92.58,1.46h-4c-.1-.3-.22-.61-.36-.91-.22-.55-.49-1.19-.79-1.82-.32-.7-.75-1.4-1.8-1.62-.46-.1-.86-.12-1.17-.12h0ZM108.88,33.22c.51.02,1.04.04,1.29.04.18.02.36,0,.55-.04.3-.06.68-.18,1.01-.51.39-.38.46-.85.46-1.49v-1.11c0-.98-.1-1.35-.34-1.65-.49-.49-1.38-.67-3.9-.45v5.16c.32.02.62.02.92.04h.01Z"/>
    <path class="cls-1" d="M121.45,31.38h3.93l-1.38,2.76h-2.55v3.24h4.94v2.99h-8.83v-15.13h8.83v2.93h-4.94v3.21h0Z"/>
    <path class="cls-3" d="M140.18,33.17v6.78c-.43.1-.86.21-1.35.28-.86.15-1.98.27-3.33.27-3.17,0-5.27-1.15-6.25-3.47-.3-.75-.49-1.98-.49-3.75v-1c0-2.1.3-3.57.85-4.36,1.13-1.86,3.02-2.78,5.91-2.78,1.21,0,2.45.15,3.83.4l.32,2.99c-1.47-.24-2.96-.36-3.76-.36-1.35,0-2.23.22-2.66.67-.38.24-.73,1.35-.73,2.99v2.36c0,1.53.28,2.28.67,2.53.34.51,1.21.75,2.62.75h.7v-3.33h-2.81l2.02-2.74h4.47v1.8h-.01Z"/>
    <path class="cls-3" d="M145.46,40.37h-4.27l5.5-15.13h4.24l5.46,15.13h-10.93Z"/>
    <path class="cls-1" d="M165.61,28.19v12.18h-3.87v-12.18h-3.57v-2.93h11.05v2.93h-3.62.01Z"/>
    <path class="cls-1" d="M174.12,31.38h3.93l-1.38,2.76h-2.55v3.24h4.94v2.99h-8.83v-15.13h8.83v2.93h-4.94v3.21h0Z"/>
  </g>
  <path class="cls-2" d="M147.73,36.83h2.13l-.1-2.87c.4-.29.66-.77.66-1.29s-.27-1.03-.69-1.32c-.27-.18-.58-.29-.92-.29-.89,0-1.62.72-1.62,1.62,0,.32.1.62.26.86.11.17.24.32.4.43l-.1,2.87h-.01Z"/>
</svg>