<svg width="236" height="60" viewBox="0 0 236 60" fill="none" xmlns="http://www.w3.org/2000/svg">
<path d="M58.9599 37H55.4996L60.772 21.7273H64.9332L70.1982 37H66.7379L62.9123 25.2173H62.793L58.9599 37ZM58.7436 30.9968H66.9169V33.5174H58.7436V30.9968ZM80 21.7273H83.229V31.6456C83.229 32.7592 82.9631 33.7337 82.4311 34.5689C81.9041 35.4041 81.1658 36.0554 80.2163 36.5227C79.2667 36.9851 78.1605 37.2163 76.8977 37.2163C75.63 37.2163 74.5213 36.9851 73.5717 36.5227C72.6222 36.0554 71.8839 35.4041 71.3569 34.5689C70.8299 33.7337 70.5664 32.7592 70.5664 31.6456V21.7273H73.7954V31.3697C73.7954 31.9513 73.9222 32.4684 74.1758 32.9208C74.4343 33.3732 74.7972 33.7287 75.2646 33.9872C75.7319 34.2457 76.2763 34.375 76.8977 34.375C77.5241 34.375 78.0685 34.2457 78.5309 33.9872C78.9982 33.7287 79.3587 33.3732 79.6122 32.9208C79.8707 32.4684 80 31.9513 80 31.3697V21.7273ZM83.8341 24.3896V21.7273H96.3774V24.3896H91.7016V37H88.5098V24.3896H83.8341ZM96.9731 37V21.7273H100.202V28.0288H106.757V21.7273H109.979V37H106.757V30.6911H100.202V37H96.9731ZM121.298 26.6641C121.194 26.3011 121.047 25.9805 120.858 25.7021C120.669 25.4187 120.438 25.18 120.165 24.9862C119.896 24.7873 119.588 24.6357 119.24 24.5312C118.897 24.4268 118.517 24.3746 118.099 24.3746C117.318 24.3746 116.632 24.5685 116.041 24.9563C115.454 25.3441 114.997 25.9084 114.669 26.6491C114.34 27.3849 114.176 28.2848 114.176 29.3487C114.176 30.4126 114.338 31.3175 114.661 32.0632C114.984 32.8089 115.442 33.3782 116.033 33.771C116.625 34.1587 117.323 34.3526 118.129 34.3526C118.86 34.3526 119.484 34.2234 120.001 33.9648C120.523 33.7013 120.92 33.331 121.194 32.8537C121.472 32.3764 121.611 31.8121 121.611 31.1609L122.268 31.2578H118.33V28.8267H124.721V30.7507C124.721 32.093 124.438 33.2464 123.871 34.2109C123.304 35.1705 122.524 35.9112 121.529 36.4332C120.535 36.9503 119.397 37.2088 118.114 37.2088C116.682 37.2088 115.424 36.8931 114.34 36.2617C113.257 35.6254 112.411 34.723 111.805 33.5547C111.203 32.3814 110.903 30.9893 110.903 29.3786C110.903 28.1406 111.082 27.0369 111.44 26.0675C111.802 25.093 112.31 24.2678 112.961 23.5916C113.612 22.9155 114.37 22.4009 115.235 22.0479C116.1 21.695 117.038 21.5185 118.047 21.5185C118.912 21.5185 119.717 21.6452 120.463 21.8988C121.209 22.1474 121.87 22.5004 122.447 22.9577C123.028 23.4151 123.503 23.9595 123.871 24.5909C124.239 25.2173 124.475 25.9084 124.579 26.6641H121.298ZM135.11 21.7273H138.339V31.6456C138.339 32.7592 138.073 33.7337 137.541 34.5689C137.014 35.4041 136.276 36.0554 135.326 36.5227C134.377 36.9851 133.271 37.2163 132.008 37.2163C130.74 37.2163 129.632 36.9851 128.682 36.5227C127.732 36.0554 126.994 35.4041 126.467 34.5689C125.94 33.7337 125.677 32.7592 125.677 31.6456V21.7273H128.906V31.3697C128.906 31.9513 129.032 32.4684 129.286 32.9208C129.545 33.3732 129.907 33.7287 130.375 33.9872C130.842 34.2457 131.387 34.375 132.008 34.375C132.634 34.375 133.179 34.2457 133.641 33.9872C134.108 33.7287 134.469 33.3732 134.722 32.9208C134.981 32.4684 135.11 31.9513 135.11 31.3697V21.7273ZM142.158 37H138.698L143.971 21.7273H148.132L153.397 37H149.936L146.111 25.2173H145.992L142.158 37ZM141.942 30.9968H150.115V33.5174H141.942V30.9968ZM153.765 37V21.7273H159.791C160.944 21.7273 161.928 21.9336 162.744 22.3462C163.564 22.7539 164.188 23.3331 164.615 24.0838C165.048 24.8295 165.264 25.707 165.264 26.7163C165.264 27.7305 165.045 28.603 164.608 29.3338C164.17 30.0597 163.537 30.6165 162.706 31.0043C161.881 31.392 160.882 31.5859 159.708 31.5859H155.674V28.9908H159.186C159.803 28.9908 160.315 28.9062 160.723 28.7372C161.13 28.5682 161.434 28.3146 161.632 27.9766C161.836 27.6385 161.938 27.2184 161.938 26.7163C161.938 26.2092 161.836 25.7816 161.632 25.4336C161.434 25.0856 161.128 24.8221 160.715 24.6431C160.308 24.4592 159.793 24.3672 159.172 24.3672H156.994V37H153.765ZM162.013 30.0497L165.809 37H162.244L158.53 30.0497H162.013ZM171.49 37H166.076V21.7273H171.535C173.071 21.7273 174.394 22.033 175.502 22.6445C176.611 23.2511 177.464 24.1236 178.06 25.2621C178.662 26.4006 178.963 27.7628 178.963 29.3487C178.963 30.9396 178.662 32.3068 178.06 33.4503C177.464 34.5937 176.606 35.4712 175.487 36.0827C174.374 36.6942 173.041 37 171.49 37ZM169.305 34.2333H171.356C172.311 34.2333 173.113 34.0643 173.765 33.7262C174.421 33.3832 174.913 32.8537 175.241 32.1378C175.574 31.4169 175.741 30.4872 175.741 29.3487C175.741 28.2202 175.574 27.2979 175.241 26.582C174.913 25.8661 174.424 25.3391 173.772 25.0011C173.121 24.663 172.318 24.494 171.363 24.494H169.305V34.2333Z" fill="white"/>
</svg>
