<?xml version="1.0" encoding="utf-8"?>
<!-- Generator: Adobe Illustrator 27.8.1, SVG Export Plug-In . SVG Version: 6.00 Build 0)  -->
<svg version="1.1" id="Layer_1" xmlns="http://www.w3.org/2000/svg" xmlns:xlink="http://www.w3.org/1999/xlink" x="0px" y="0px"
	 viewBox="0 0 32 32" style="enable-background:new 0 0 32 32;" xml:space="preserve">
<path d="M29.78,3.88H1.93c-0.59,0-1.07,0.48-1.07,1.07v16.61c0,0.59,0.48,1.07,1.07,1.07h12.72v3.75H8.89
	c-0.29,0-0.54,0.24-0.54,0.54v1.61c0,0.15,0.12,0.27,0.27,0.27h14.46c0.15,0,0.27-0.12,0.27-0.27v-1.61c0-0.29-0.24-0.54-0.54-0.54
	h-5.76v-3.75h12.72c0.59,0,1.07-0.48,1.07-1.07V4.96C30.85,4.36,30.38,3.88,29.78,3.88z M28.44,20.22H3.27V6.29h25.18V20.22z"/>
</svg>
