<?xml version="1.0" encoding="utf-8"?>
<!-- Generator: Adobe Illustrator 27.8.1, SVG Export Plug-In . SVG Version: 6.00 Build 0)  -->
<svg version="1.1" id="Layer_1" xmlns="http://www.w3.org/2000/svg" xmlns:xlink="http://www.w3.org/1999/xlink" x="0px" y="0px"
	 viewBox="0 0 32 32" style="enable-background:new 0 0 32 32;" xml:space="preserve">
<path d="M29.22,26.04c-0.73-1.72-1.78-3.29-3.11-4.61c-1.32-1.32-2.89-2.38-4.61-3.11c-0.02-0.01-0.03-0.01-0.05-0.02
	c2.4-1.74,3.96-4.56,3.96-7.75c0-5.28-4.28-9.56-9.56-9.56s-9.56,4.28-9.56,9.56c0,3.19,1.56,6.02,3.96,7.76
	c-0.02,0.01-0.03,0.01-0.05,0.02c-1.73,0.73-3.28,1.77-4.61,3.11c-1.32,1.32-2.38,2.89-3.11,4.61c-0.72,1.69-1.1,3.49-1.14,5.33
	c0,0.17,0.13,0.31,0.3,0.32c0,0,0.01,0,0.01,0h2.31c0.17,0,0.3-0.13,0.31-0.3c0.08-2.98,1.27-5.77,3.39-7.88
	c2.19-2.19,5.09-3.39,8.18-3.39s6,1.2,8.18,3.39c2.11,2.11,3.31,4.9,3.39,7.88c0,0.17,0.14,0.3,0.31,0.3h2.31
	c0.17,0,0.31-0.14,0.31-0.31c0,0,0-0.01,0-0.01C30.32,29.53,29.93,27.74,29.22,26.04z M15.86,17.19c-1.77,0-3.44-0.69-4.69-1.94
	s-1.94-2.92-1.94-4.69s0.69-3.44,1.94-4.69s2.92-1.94,4.69-1.94s3.44,0.69,4.69,1.94c1.25,1.25,1.94,2.92,1.94,4.69
	s-0.69,3.44-1.94,4.69C19.29,16.5,17.63,17.19,15.86,17.19z"/>
</svg>
